<svg width="144" height="26" viewBox="0 0 144 26" fill="none" xmlns="http://www.w3.org/2000/svg">
<mask id="path-1-outside-1_131_340" maskUnits="userSpaceOnUse" x="0" y="0" width="144" height="26" fill="black">
<rect fill="white" width="144" height="26"/>
<path d="M1.12175 0.999998H2.14575C3.83108 0.999998 5.06842 1.39466 5.85775 2.184C6.64708 2.952 7.04175 4.09333 7.04175 5.608C7.04175 6.48267 6.78575 7.32533 6.27375 8.136C5.76175 8.92533 5.14308 9.45867 4.41775 9.736C6.25242 10.0347 7.67108 10.8027 8.67375 12.04C9.67642 13.2773 10.1778 14.8987 10.1778 16.904C10.1778 18.504 9.82575 19.9227 9.12175 21.16C8.41775 22.376 7.44708 23.3253 6.20975 24.008C4.99375 24.6693 3.63908 25 2.14575 25H1.12175V0.999998ZM2.40175 9.448C3.42575 9.448 4.28975 9.07467 4.99375 8.328C5.69775 7.58133 6.04975 6.664 6.04975 5.576C6.04975 4.36 5.75108 3.44267 5.15375 2.824C4.57775 2.20533 3.66042 1.896 2.40175 1.896H2.14575V9.448H2.40175ZM2.40175 24.104C3.66042 24.104 4.80175 23.8053 5.82575 23.208C6.84975 22.5893 7.66042 21.736 8.25775 20.648C8.85508 19.56 9.15375 18.3333 9.15375 16.968C9.15375 14.7707 8.56708 13.1173 7.39375 12.008C6.24175 10.8773 4.57775 10.312 2.40175 10.312H2.14575V24.104H2.40175ZM18.988 25.288C17.9853 25.288 17.068 25.064 16.236 24.616C15.404 24.1467 14.7427 23.496 14.252 22.664C13.7613 21.832 13.516 20.904 13.516 19.88V0.999998H14.54V19.88C14.54 20.7333 14.732 21.5013 15.116 22.184C15.5213 22.8667 16.0653 23.4107 16.748 23.816C17.4307 24.2 18.1773 24.392 18.988 24.392V25.288ZM23.5453 7.304C23.2466 7.304 22.9799 7.19733 22.7453 6.984C22.5319 6.77067 22.4253 6.504 22.4253 6.184C22.4253 5.88533 22.5319 5.62933 22.7453 5.416C22.9799 5.20267 23.2466 5.096 23.5453 5.096C23.8439 5.096 24.0999 5.20267 24.3133 5.416C24.5479 5.62933 24.6653 5.88533 24.6653 6.184C24.6653 6.504 24.5479 6.77067 24.3133 6.984C24.0999 7.19733 23.8439 7.304 23.5453 7.304ZM23.0333 10.6H24.0573V25H23.0333V10.6ZM32.3165 25.352C31.2925 25.352 30.3858 25.1813 29.5965 24.84C28.8072 24.4773 28.2418 24.0187 27.9005 23.464V21.768C28.3058 22.6853 28.8605 23.368 29.5645 23.816C30.2685 24.2427 31.1645 24.456 32.2525 24.456C33.2978 24.456 34.1405 24.136 34.7805 23.496C35.4205 22.8347 35.7405 21.992 35.7405 20.968C35.7405 20.0933 35.5592 19.4213 35.1965 18.952C34.8338 18.4613 34.2472 17.9707 33.4365 17.48L32.2205 16.776C31.3458 16.2427 30.6845 15.8267 30.2365 15.528C29.8098 15.208 29.4685 14.856 29.2125 14.472C28.9565 14.0667 28.8285 13.5973 28.8285 13.064C28.8285 12.2107 29.1272 11.528 29.7245 11.016C30.3218 10.504 31.1005 10.248 32.0605 10.248C33.2338 10.248 34.2152 10.5147 35.0045 11.048V12.456C34.3432 11.5813 33.3938 11.144 32.1565 11.144C31.4738 11.144 30.9192 11.3147 30.4925 11.656C30.0658 11.9973 29.8525 12.4347 29.8525 12.968C29.8525 13.4373 29.9805 13.8533 30.2365 14.216C30.4925 14.5573 30.8445 14.8773 31.2925 15.176C31.7618 15.4747 32.5298 15.9227 33.5965 16.52C34.6845 17.1387 35.4845 17.7787 35.9965 18.44C36.5085 19.08 36.7645 19.9227 36.7645 20.968C36.7645 22.2907 36.3272 23.3573 35.4525 24.168C34.5992 24.9573 33.5538 25.352 32.3165 25.352ZM43.4415 25.352C42.4175 25.352 41.5108 25.1813 40.7215 24.84C39.9322 24.4773 39.3668 24.0187 39.0255 23.464V21.768C39.4308 22.6853 39.9855 23.368 40.6895 23.816C41.3935 24.2427 42.2895 24.456 43.3775 24.456C44.4228 24.456 45.2655 24.136 45.9055 23.496C46.5455 22.8347 46.8655 21.992 46.8655 20.968C46.8655 20.0933 46.6842 19.4213 46.3215 18.952C45.9588 18.4613 45.3722 17.9707 44.5615 17.48L43.3455 16.776C42.4708 16.2427 41.8095 15.8267 41.3615 15.528C40.9348 15.208 40.5935 14.856 40.3375 14.472C40.0815 14.0667 39.9535 13.5973 39.9535 13.064C39.9535 12.2107 40.2522 11.528 40.8495 11.016C41.4468 10.504 42.2255 10.248 43.1855 10.248C44.3588 10.248 45.3402 10.5147 46.1295 11.048V12.456C45.4682 11.5813 44.5188 11.144 43.2815 11.144C42.5988 11.144 42.0442 11.3147 41.6175 11.656C41.1908 11.9973 40.9775 12.4347 40.9775 12.968C40.9775 13.4373 41.1055 13.8533 41.3615 14.216C41.6175 14.5573 41.9695 14.8773 42.4175 15.176C42.8868 15.4747 43.6548 15.9227 44.7215 16.52C45.8095 17.1387 46.6095 17.7787 47.1215 18.44C47.6335 19.08 47.8895 19.9227 47.8895 20.968C47.8895 22.2907 47.4522 23.3573 46.5775 24.168C45.7242 24.9573 44.6788 25.352 43.4415 25.352ZM56.5505 5.48C55.7398 5.48 54.9932 5.68267 54.3105 6.088C53.6278 6.472 53.0838 7.016 52.6785 7.72C52.2945 8.40267 52.1025 9.16 52.1025 9.992V10.6H56.5505V11.496H52.1025V25H51.0785V9.992C51.0785 8.98933 51.3132 8.08267 51.7825 7.272C52.2732 6.44 52.9345 5.78933 53.7665 5.32C54.6198 4.82933 55.5478 4.584 56.5505 4.584V5.48ZM65.602 25.352C63.5753 25.352 62.0073 24.7973 60.898 23.688C59.81 22.5787 59.266 21.0107 59.266 18.984V10.6H60.29V18.984C60.29 20.7333 60.7487 22.088 61.666 23.048C62.6047 23.9867 63.9167 24.456 65.602 24.456C66.626 24.456 67.5647 24.232 68.418 23.784C69.2713 23.3147 69.9433 22.664 70.434 21.832C70.9247 21 71.17 20.0507 71.17 18.984V10.6H72.194V25H71.17V22.312C70.6793 23.208 69.9433 23.944 68.962 24.52C67.9807 25.0747 66.8607 25.352 65.602 25.352ZM81.7068 25.288C80.7041 25.288 79.7868 25.064 78.9548 24.616C78.1228 24.1467 77.4614 23.496 76.9708 22.664C76.4801 21.832 76.2348 20.904 76.2348 19.88V0.999998H77.2588V19.88C77.2588 20.7333 77.4508 21.5013 77.8348 22.184C78.2401 22.8667 78.7841 23.4107 79.4668 23.816C80.1494 24.2 80.8961 24.392 81.7068 24.392V25.288ZM92.5593 0.999998H93.5833C95.2686 0.999998 96.5059 1.39466 97.2953 2.184C98.0846 2.952 98.4792 4.09333 98.4792 5.608C98.4792 6.48267 98.2233 7.32533 97.7113 8.136C97.1993 8.92533 96.5806 9.45867 95.8553 9.736C97.6899 10.0347 99.1086 10.8027 100.111 12.04C101.114 13.2773 101.615 14.8987 101.615 16.904C101.615 18.504 101.263 19.9227 100.559 21.16C99.8553 22.376 98.8846 23.3253 97.6473 24.008C96.4313 24.6693 95.0766 25 93.5833 25H92.5593V0.999998ZM93.8393 9.448C94.8633 9.448 95.7273 9.07467 96.4313 8.328C97.1353 7.58133 97.4873 6.664 97.4873 5.576C97.4873 4.36 97.1886 3.44267 96.5913 2.824C96.0153 2.20533 95.0979 1.896 93.8393 1.896H93.5833V9.448H93.8393ZM93.8393 24.104C95.0979 24.104 96.2393 23.8053 97.2633 23.208C98.2873 22.5893 99.0979 21.736 99.6953 20.648C100.293 19.56 100.591 18.3333 100.591 16.968C100.591 14.7707 100.005 13.1173 98.8313 12.008C97.6793 10.8773 96.0153 10.312 93.8393 10.312H93.5833V24.104H93.8393ZM106.202 7.304C105.903 7.304 105.636 7.19733 105.402 6.984C105.188 6.77067 105.082 6.504 105.082 6.184C105.082 5.88533 105.188 5.62933 105.402 5.416C105.636 5.20267 105.903 5.096 106.202 5.096C106.5 5.096 106.756 5.20267 106.97 5.416C107.204 5.62933 107.322 5.88533 107.322 6.184C107.322 6.504 107.204 6.77067 106.97 6.984C106.756 7.19733 106.5 7.304 106.202 7.304ZM105.69 10.6H106.714V25H105.69V10.6ZM116.637 25.192C115.058 25.192 113.746 24.712 112.701 23.752C111.677 22.792 111.165 21.4693 111.165 19.784V4.808H112.189V10.6H116.605V11.496H112.189V19.784C112.189 21.192 112.605 22.3013 113.437 23.112C114.29 23.9013 115.357 24.296 116.637 24.296V25.192ZM126.337 24.488C127.446 24.488 128.502 24.2 129.505 23.624C130.507 23.048 131.339 22.2587 132.001 21.256V22.888C131.211 23.7627 130.347 24.4027 129.409 24.808C128.47 25.192 127.403 25.384 126.209 25.384C124.886 25.384 123.638 25.032 122.465 24.328C121.313 23.624 120.385 22.6853 119.681 21.512C118.998 20.3387 118.657 19.0907 118.657 17.768C118.657 16.3387 118.998 15.0587 119.681 13.928C120.363 12.776 121.291 11.88 122.465 11.24C123.659 10.6 124.982 10.28 126.433 10.28C128.651 10.28 130.539 11.1547 132.097 12.904L122.049 22.824C122.753 23.4 123.435 23.8267 124.097 24.104C124.758 24.36 125.505 24.488 126.337 24.488ZM119.681 17.672C119.681 19.4427 120.267 20.9573 121.441 22.216L130.817 12.904C130.113 12.2853 129.43 11.848 128.769 11.592C128.107 11.3147 127.318 11.176 126.401 11.176C125.099 11.176 123.937 11.464 122.913 12.04C121.91 12.5947 121.121 13.3627 120.545 14.344C119.969 15.3253 119.681 16.4347 119.681 17.672ZM138.785 25.352C137.761 25.352 136.855 25.1813 136.065 24.84C135.276 24.4773 134.711 24.0187 134.369 23.464V21.768C134.775 22.6853 135.329 23.368 136.033 23.816C136.737 24.2427 137.633 24.456 138.721 24.456C139.767 24.456 140.609 24.136 141.249 23.496C141.889 22.8347 142.209 21.992 142.209 20.968C142.209 20.0933 142.028 19.4213 141.665 18.952C141.303 18.4613 140.716 17.9707 139.905 17.48L138.689 16.776C137.815 16.2427 137.153 15.8267 136.705 15.528C136.279 15.208 135.937 14.856 135.681 14.472C135.425 14.0667 135.297 13.5973 135.297 13.064C135.297 12.2107 135.596 11.528 136.193 11.016C136.791 10.504 137.569 10.248 138.529 10.248C139.703 10.248 140.684 10.5147 141.473 11.048V12.456C140.812 11.5813 139.863 11.144 138.625 11.144C137.943 11.144 137.388 11.3147 136.961 11.656C136.535 11.9973 136.321 12.4347 136.321 12.968C136.321 13.4373 136.449 13.8533 136.705 14.216C136.961 14.5573 137.313 14.8773 137.761 15.176C138.231 15.4747 138.999 15.9227 140.065 16.52C141.153 17.1387 141.953 17.7787 142.465 18.44C142.977 19.08 143.233 19.9227 143.233 20.968C143.233 22.2907 142.796 23.3573 141.921 24.168C141.068 24.9573 140.023 25.352 138.785 25.352Z"/>
</mask>
<path d="M1.12175 0.999998H2.14575C3.83108 0.999998 5.06842 1.39466 5.85775 2.184C6.64708 2.952 7.04175 4.09333 7.04175 5.608C7.04175 6.48267 6.78575 7.32533 6.27375 8.136C5.76175 8.92533 5.14308 9.45867 4.41775 9.736C6.25242 10.0347 7.67108 10.8027 8.67375 12.04C9.67642 13.2773 10.1778 14.8987 10.1778 16.904C10.1778 18.504 9.82575 19.9227 9.12175 21.16C8.41775 22.376 7.44708 23.3253 6.20975 24.008C4.99375 24.6693 3.63908 25 2.14575 25H1.12175V0.999998ZM2.40175 9.448C3.42575 9.448 4.28975 9.07467 4.99375 8.328C5.69775 7.58133 6.04975 6.664 6.04975 5.576C6.04975 4.36 5.75108 3.44267 5.15375 2.824C4.57775 2.20533 3.66042 1.896 2.40175 1.896H2.14575V9.448H2.40175ZM2.40175 24.104C3.66042 24.104 4.80175 23.8053 5.82575 23.208C6.84975 22.5893 7.66042 21.736 8.25775 20.648C8.85508 19.56 9.15375 18.3333 9.15375 16.968C9.15375 14.7707 8.56708 13.1173 7.39375 12.008C6.24175 10.8773 4.57775 10.312 2.40175 10.312H2.14575V24.104H2.40175ZM18.988 25.288C17.9853 25.288 17.068 25.064 16.236 24.616C15.404 24.1467 14.7427 23.496 14.252 22.664C13.7613 21.832 13.516 20.904 13.516 19.88V0.999998H14.54V19.88C14.54 20.7333 14.732 21.5013 15.116 22.184C15.5213 22.8667 16.0653 23.4107 16.748 23.816C17.4307 24.2 18.1773 24.392 18.988 24.392V25.288ZM23.5453 7.304C23.2466 7.304 22.9799 7.19733 22.7453 6.984C22.5319 6.77067 22.4253 6.504 22.4253 6.184C22.4253 5.88533 22.5319 5.62933 22.7453 5.416C22.9799 5.20267 23.2466 5.096 23.5453 5.096C23.8439 5.096 24.0999 5.20267 24.3133 5.416C24.5479 5.62933 24.6653 5.88533 24.6653 6.184C24.6653 6.504 24.5479 6.77067 24.3133 6.984C24.0999 7.19733 23.8439 7.304 23.5453 7.304ZM23.0333 10.6H24.0573V25H23.0333V10.6ZM32.3165 25.352C31.2925 25.352 30.3858 25.1813 29.5965 24.84C28.8072 24.4773 28.2418 24.0187 27.9005 23.464V21.768C28.3058 22.6853 28.8605 23.368 29.5645 23.816C30.2685 24.2427 31.1645 24.456 32.2525 24.456C33.2978 24.456 34.1405 24.136 34.7805 23.496C35.4205 22.8347 35.7405 21.992 35.7405 20.968C35.7405 20.0933 35.5592 19.4213 35.1965 18.952C34.8338 18.4613 34.2472 17.9707 33.4365 17.48L32.2205 16.776C31.3458 16.2427 30.6845 15.8267 30.2365 15.528C29.8098 15.208 29.4685 14.856 29.2125 14.472C28.9565 14.0667 28.8285 13.5973 28.8285 13.064C28.8285 12.2107 29.1272 11.528 29.7245 11.016C30.3218 10.504 31.1005 10.248 32.0605 10.248C33.2338 10.248 34.2152 10.5147 35.0045 11.048V12.456C34.3432 11.5813 33.3938 11.144 32.1565 11.144C31.4738 11.144 30.9192 11.3147 30.4925 11.656C30.0658 11.9973 29.8525 12.4347 29.8525 12.968C29.8525 13.4373 29.9805 13.8533 30.2365 14.216C30.4925 14.5573 30.8445 14.8773 31.2925 15.176C31.7618 15.4747 32.5298 15.9227 33.5965 16.52C34.6845 17.1387 35.4845 17.7787 35.9965 18.44C36.5085 19.08 36.7645 19.9227 36.7645 20.968C36.7645 22.2907 36.3272 23.3573 35.4525 24.168C34.5992 24.9573 33.5538 25.352 32.3165 25.352ZM43.4415 25.352C42.4175 25.352 41.5108 25.1813 40.7215 24.84C39.9322 24.4773 39.3668 24.0187 39.0255 23.464V21.768C39.4308 22.6853 39.9855 23.368 40.6895 23.816C41.3935 24.2427 42.2895 24.456 43.3775 24.456C44.4228 24.456 45.2655 24.136 45.9055 23.496C46.5455 22.8347 46.8655 21.992 46.8655 20.968C46.8655 20.0933 46.6842 19.4213 46.3215 18.952C45.9588 18.4613 45.3722 17.9707 44.5615 17.48L43.3455 16.776C42.4708 16.2427 41.8095 15.8267 41.3615 15.528C40.9348 15.208 40.5935 14.856 40.3375 14.472C40.0815 14.0667 39.9535 13.5973 39.9535 13.064C39.9535 12.2107 40.2522 11.528 40.8495 11.016C41.4468 10.504 42.2255 10.248 43.1855 10.248C44.3588 10.248 45.3402 10.5147 46.1295 11.048V12.456C45.4682 11.5813 44.5188 11.144 43.2815 11.144C42.5988 11.144 42.0442 11.3147 41.6175 11.656C41.1908 11.9973 40.9775 12.4347 40.9775 12.968C40.9775 13.4373 41.1055 13.8533 41.3615 14.216C41.6175 14.5573 41.9695 14.8773 42.4175 15.176C42.8868 15.4747 43.6548 15.9227 44.7215 16.52C45.8095 17.1387 46.6095 17.7787 47.1215 18.44C47.6335 19.08 47.8895 19.9227 47.8895 20.968C47.8895 22.2907 47.4522 23.3573 46.5775 24.168C45.7242 24.9573 44.6788 25.352 43.4415 25.352ZM56.5505 5.48C55.7398 5.48 54.9932 5.68267 54.3105 6.088C53.6278 6.472 53.0838 7.016 52.6785 7.72C52.2945 8.40267 52.1025 9.16 52.1025 9.992V10.6H56.5505V11.496H52.1025V25H51.0785V9.992C51.0785 8.98933 51.3132 8.08267 51.7825 7.272C52.2732 6.44 52.9345 5.78933 53.7665 5.32C54.6198 4.82933 55.5478 4.584 56.5505 4.584V5.48ZM65.602 25.352C63.5753 25.352 62.0073 24.7973 60.898 23.688C59.81 22.5787 59.266 21.0107 59.266 18.984V10.6H60.29V18.984C60.29 20.7333 60.7487 22.088 61.666 23.048C62.6047 23.9867 63.9167 24.456 65.602 24.456C66.626 24.456 67.5647 24.232 68.418 23.784C69.2713 23.3147 69.9433 22.664 70.434 21.832C70.9247 21 71.17 20.0507 71.17 18.984V10.6H72.194V25H71.17V22.312C70.6793 23.208 69.9433 23.944 68.962 24.52C67.9807 25.0747 66.8607 25.352 65.602 25.352ZM81.7068 25.288C80.7041 25.288 79.7868 25.064 78.9548 24.616C78.1228 24.1467 77.4614 23.496 76.9708 22.664C76.4801 21.832 76.2348 20.904 76.2348 19.88V0.999998H77.2588V19.88C77.2588 20.7333 77.4508 21.5013 77.8348 22.184C78.2401 22.8667 78.7841 23.4107 79.4668 23.816C80.1494 24.2 80.8961 24.392 81.7068 24.392V25.288ZM92.5593 0.999998H93.5833C95.2686 0.999998 96.5059 1.39466 97.2953 2.184C98.0846 2.952 98.4792 4.09333 98.4792 5.608C98.4792 6.48267 98.2233 7.32533 97.7113 8.136C97.1993 8.92533 96.5806 9.45867 95.8553 9.736C97.6899 10.0347 99.1086 10.8027 100.111 12.04C101.114 13.2773 101.615 14.8987 101.615 16.904C101.615 18.504 101.263 19.9227 100.559 21.16C99.8553 22.376 98.8846 23.3253 97.6473 24.008C96.4313 24.6693 95.0766 25 93.5833 25H92.5593V0.999998ZM93.8393 9.448C94.8633 9.448 95.7273 9.07467 96.4313 8.328C97.1353 7.58133 97.4873 6.664 97.4873 5.576C97.4873 4.36 97.1886 3.44267 96.5913 2.824C96.0153 2.20533 95.0979 1.896 93.8393 1.896H93.5833V9.448H93.8393ZM93.8393 24.104C95.0979 24.104 96.2393 23.8053 97.2633 23.208C98.2873 22.5893 99.0979 21.736 99.6953 20.648C100.293 19.56 100.591 18.3333 100.591 16.968C100.591 14.7707 100.005 13.1173 98.8313 12.008C97.6793 10.8773 96.0153 10.312 93.8393 10.312H93.5833V24.104H93.8393ZM106.202 7.304C105.903 7.304 105.636 7.19733 105.402 6.984C105.188 6.77067 105.082 6.504 105.082 6.184C105.082 5.88533 105.188 5.62933 105.402 5.416C105.636 5.20267 105.903 5.096 106.202 5.096C106.5 5.096 106.756 5.20267 106.97 5.416C107.204 5.62933 107.322 5.88533 107.322 6.184C107.322 6.504 107.204 6.77067 106.97 6.984C106.756 7.19733 106.5 7.304 106.202 7.304ZM105.69 10.6H106.714V25H105.69V10.6ZM116.637 25.192C115.058 25.192 113.746 24.712 112.701 23.752C111.677 22.792 111.165 21.4693 111.165 19.784V4.808H112.189V10.6H116.605V11.496H112.189V19.784C112.189 21.192 112.605 22.3013 113.437 23.112C114.29 23.9013 115.357 24.296 116.637 24.296V25.192ZM126.337 24.488C127.446 24.488 128.502 24.2 129.505 23.624C130.507 23.048 131.339 22.2587 132.001 21.256V22.888C131.211 23.7627 130.347 24.4027 129.409 24.808C128.47 25.192 127.403 25.384 126.209 25.384C124.886 25.384 123.638 25.032 122.465 24.328C121.313 23.624 120.385 22.6853 119.681 21.512C118.998 20.3387 118.657 19.0907 118.657 17.768C118.657 16.3387 118.998 15.0587 119.681 13.928C120.363 12.776 121.291 11.88 122.465 11.24C123.659 10.6 124.982 10.28 126.433 10.28C128.651 10.28 130.539 11.1547 132.097 12.904L122.049 22.824C122.753 23.4 123.435 23.8267 124.097 24.104C124.758 24.36 125.505 24.488 126.337 24.488ZM119.681 17.672C119.681 19.4427 120.267 20.9573 121.441 22.216L130.817 12.904C130.113 12.2853 129.43 11.848 128.769 11.592C128.107 11.3147 127.318 11.176 126.401 11.176C125.099 11.176 123.937 11.464 122.913 12.04C121.91 12.5947 121.121 13.3627 120.545 14.344C119.969 15.3253 119.681 16.4347 119.681 17.672ZM138.785 25.352C137.761 25.352 136.855 25.1813 136.065 24.84C135.276 24.4773 134.711 24.0187 134.369 23.464V21.768C134.775 22.6853 135.329 23.368 136.033 23.816C136.737 24.2427 137.633 24.456 138.721 24.456C139.767 24.456 140.609 24.136 141.249 23.496C141.889 22.8347 142.209 21.992 142.209 20.968C142.209 20.0933 142.028 19.4213 141.665 18.952C141.303 18.4613 140.716 17.9707 139.905 17.48L138.689 16.776C137.815 16.2427 137.153 15.8267 136.705 15.528C136.279 15.208 135.937 14.856 135.681 14.472C135.425 14.0667 135.297 13.5973 135.297 13.064C135.297 12.2107 135.596 11.528 136.193 11.016C136.791 10.504 137.569 10.248 138.529 10.248C139.703 10.248 140.684 10.5147 141.473 11.048V12.456C140.812 11.5813 139.863 11.144 138.625 11.144C137.943 11.144 137.388 11.3147 136.961 11.656C136.535 11.9973 136.321 12.4347 136.321 12.968C136.321 13.4373 136.449 13.8533 136.705 14.216C136.961 14.5573 137.313 14.8773 137.761 15.176C138.231 15.4747 138.999 15.9227 140.065 16.52C141.153 17.1387 141.953 17.7787 142.465 18.44C142.977 19.08 143.233 19.9227 143.233 20.968C143.233 22.2907 142.796 23.3573 141.921 24.168C141.068 24.9573 140.023 25.352 138.785 25.352Z" fill="#D1AA70"/>
<path d="M1.12175 0.999998V0.499998H0.62175V0.999998H1.12175ZM5.85775 2.184L5.50417 2.53758L5.50907 2.54236L5.85775 2.184ZM6.27375 8.136L6.69326 8.40812L6.6965 8.403L6.27375 8.136ZM4.41775 9.736L4.23918 9.26897L2.50654 9.93145L4.33741 10.2295L4.41775 9.736ZM8.67375 12.04L9.06222 11.7252V11.7252L8.67375 12.04ZM9.12175 21.16L9.55447 21.4105L9.55634 21.4073L9.12175 21.16ZM6.20975 24.008L6.44864 24.4473L6.45129 24.4458L6.20975 24.008ZM1.12175 25H0.62175V25.5H1.12175V25ZM4.99375 8.328L5.35754 8.67101L4.99375 8.328ZM5.15375 2.824L4.78774 3.16476L4.79405 3.1713L5.15375 2.824ZM2.14575 1.896V1.396H1.64575V1.896H2.14575ZM2.14575 9.448H1.64575V9.948H2.14575V9.448ZM5.82575 23.208L6.07771 23.6399L6.0843 23.636L5.82575 23.208ZM8.25775 20.648L7.81946 20.4074L8.25775 20.648ZM7.39375 12.008L7.04346 12.3649L7.05025 12.3713L7.39375 12.008ZM2.14575 10.312V9.812H1.64575V10.312H2.14575ZM2.14575 24.104H1.64575V24.604H2.14575V24.104ZM1.12175 1.5H2.14575V0.499998H1.12175V1.5ZM2.14575 1.5C3.76511 1.5 4.84707 1.88043 5.5042 2.53755L6.2113 1.83044C5.28976 0.908903 3.89706 0.499998 2.14575 0.499998V1.5ZM5.50907 2.54236C6.16985 3.18528 6.54175 4.17633 6.54175 5.608H7.54175C7.54175 4.01033 7.12431 2.71871 6.20643 1.82564L5.50907 2.54236ZM6.54175 5.608C6.54175 6.37915 6.31757 7.13027 5.85101 7.869L6.6965 8.403C7.25393 7.52039 7.54175 6.58618 7.54175 5.608H6.54175ZM5.85427 7.8639C5.38744 8.5836 4.84615 9.03689 4.23918 9.26897L4.59632 10.203C5.44001 9.88044 6.13606 9.26707 6.69323 8.4081L5.85427 7.8639ZM4.33741 10.2295C6.07241 10.5119 7.3726 11.2285 8.28529 12.3548L9.06222 11.7252C7.96957 10.3768 6.43243 9.55739 4.49809 9.2425L4.33741 10.2295ZM8.28529 12.3548C9.19875 13.482 9.67775 14.9829 9.67775 16.904H10.6777C10.6777 14.8144 10.1541 13.0726 9.06222 11.7252L8.28529 12.3548ZM9.67775 16.904C9.67775 18.4283 9.34319 19.7597 8.68717 20.9127L9.55634 21.4073C10.3083 20.0856 10.6777 18.5797 10.6777 16.904H9.67775ZM8.68904 20.9095C8.03084 22.0464 7.12647 22.9312 5.96821 23.5702L6.45129 24.4458C7.76769 23.7195 8.80466 22.7056 9.55447 21.4105L8.68904 20.9095ZM5.97086 23.5688C4.83389 24.1871 3.56239 24.5 2.14575 24.5V25.5C3.71577 25.5 5.15361 25.1516 6.44864 24.4472L5.97086 23.5688ZM2.14575 24.5H1.12175V25.5H2.14575V24.5ZM1.62175 25V0.999998H0.62175V25H1.62175ZM2.40175 9.948C3.5638 9.948 4.5593 9.51762 5.35754 8.67101L4.62996 7.98499C4.0202 8.63171 3.2877 8.948 2.40175 8.948V9.948ZM5.35754 8.67101C6.15466 7.82559 6.54975 6.78308 6.54975 5.576H5.54975C5.54975 6.54492 5.24084 7.33708 4.62996 7.98499L5.35754 8.67101ZM6.54975 5.576C6.54975 4.28438 6.23235 3.22127 5.51345 2.4767L4.79405 3.1713C5.26982 3.66406 5.54975 4.43562 5.54975 5.576H6.54975ZM5.5197 2.48329C4.81104 1.72213 3.73119 1.396 2.40175 1.396V2.396C3.58965 2.396 4.34447 2.68853 4.7878 3.16471L5.5197 2.48329ZM2.40175 1.396H2.14575V2.396H2.40175V1.396ZM1.64575 1.896V9.448H2.64575V1.896H1.64575ZM2.14575 9.948H2.40175V8.948H2.14575V9.948ZM2.40175 24.604C3.74327 24.604 4.97246 24.2846 6.07768 23.6399L5.57381 22.7761C4.63104 23.3261 3.57756 23.604 2.40175 23.604V24.604ZM6.0843 23.636C7.18656 22.97 8.05799 22.0508 8.69604 20.8886L7.81946 20.4074C7.26284 21.4212 6.51294 22.2087 5.56719 22.78L6.0843 23.636ZM8.69604 20.8886C9.33781 19.7197 9.65375 18.4089 9.65375 16.968H8.65375C8.65375 18.2578 8.37236 19.4003 7.81946 20.4074L8.69604 20.8886ZM9.65375 16.968C9.65375 14.6845 9.04249 12.8787 7.73726 11.6447L7.05025 12.3713C8.09168 13.356 8.65375 14.8568 8.65375 16.968H9.65375ZM7.74398 11.6512C6.46971 10.4005 4.66196 9.812 2.40175 9.812V10.812C4.49355 10.812 6.01379 11.3542 7.04352 12.3648L7.74398 11.6512ZM2.40175 9.812H2.14575V10.812H2.40175V9.812ZM1.64575 10.312V24.104H2.64575V10.312H1.64575ZM2.14575 24.604H2.40175V23.604H2.14575V24.604ZM18.988 25.288V25.788H19.488V25.288H18.988ZM16.236 24.616L15.9903 25.0516L15.9989 25.0562L16.236 24.616ZM14.252 22.664L14.6827 22.41L14.252 22.664ZM13.516 0.999998V0.499998H13.016V0.999998H13.516ZM14.54 0.999998H15.04V0.499998H14.54V0.999998ZM15.116 22.184L14.6801 22.4292L14.6861 22.4393L15.116 22.184ZM16.748 23.816L16.4927 24.246L16.5029 24.2518L16.748 23.816ZM18.988 24.392H19.488V23.892H18.988V24.392ZM18.988 24.788C18.0629 24.788 17.2277 24.5821 16.4731 24.1758L15.9989 25.0562C16.9083 25.5459 17.9078 25.788 18.988 25.788V24.788ZM16.4817 24.1805C15.7271 23.7549 15.1292 23.1672 14.6827 22.41L13.8213 22.918C14.3561 23.8248 15.0809 24.5385 15.9903 25.0515L16.4817 24.1805ZM14.6827 22.41C14.2402 21.6596 14.016 20.8202 14.016 19.88H13.016C13.016 20.9878 13.2825 22.0044 13.8213 22.918L14.6827 22.41ZM14.016 19.88V0.999998H13.016V19.88H14.016ZM13.516 1.5H14.54V0.499998H13.516V1.5ZM14.04 0.999998V19.88H15.04V0.999998H14.04ZM14.04 19.88C14.04 20.8113 14.2504 21.665 14.6802 22.4291L15.5518 21.9389C15.2136 21.3376 15.04 20.6554 15.04 19.88H14.04ZM14.6861 22.4393C15.1341 23.1938 15.7382 23.7979 16.4927 24.2459L17.0033 23.3861C16.3925 23.0234 15.9086 22.5395 15.5459 21.9287L14.6861 22.4393ZM16.5029 24.2518C17.2631 24.6794 18.0946 24.892 18.988 24.892V23.892C18.2601 23.892 17.5983 23.7206 16.9931 23.3802L16.5029 24.2518ZM18.488 24.392V25.288H19.488V24.392H18.488ZM22.7452 6.984L22.3917 7.33755L22.4001 7.34597L22.4089 7.35397L22.7452 6.984ZM22.7452 5.416L22.4089 5.04603L22.4001 5.05403L22.3917 5.06244L22.7452 5.416ZM24.3132 5.416L23.9597 5.76955L23.9681 5.77797L23.9769 5.78597L24.3132 5.416ZM24.3132 6.984L23.9769 6.61403L23.9681 6.62203L23.9597 6.63045L24.3132 6.984ZM23.0332 10.6V10.1H22.5332V10.6H23.0332ZM24.0573 10.6H24.5573V10.1H24.0573V10.6ZM24.0573 25V25.5H24.5573V25H24.0573ZM23.0332 25H22.5332V25.5H23.0332V25ZM23.5452 6.804C23.3791 6.804 23.2304 6.74935 23.0816 6.61403L22.4089 7.35397C22.7294 7.64531 23.114 7.804 23.5452 7.804V6.804ZM23.0988 6.63045C22.9854 6.51701 22.9252 6.38032 22.9252 6.184H21.9252C21.9252 6.62768 22.0785 7.02432 22.3917 7.33755L23.0988 6.63045ZM22.9252 6.184C22.9252 6.01945 22.9782 5.89019 23.0988 5.76955L22.3917 5.06244C22.0857 5.36848 21.9252 5.75122 21.9252 6.184H22.9252ZM23.0816 5.78597C23.2304 5.65064 23.3791 5.596 23.5452 5.596V4.596C23.114 4.596 22.7294 4.75469 22.4089 5.04603L23.0816 5.78597ZM23.5452 5.596C23.7098 5.596 23.8391 5.64892 23.9597 5.76955L24.6668 5.06244C24.3608 4.75641 23.978 4.596 23.5452 4.596V5.596ZM23.9769 5.78597C24.1146 5.91115 24.1653 6.03573 24.1653 6.184H25.1653C25.1653 5.73493 24.9812 5.34752 24.6496 5.04603L23.9769 5.78597ZM24.1653 6.184C24.1653 6.36458 24.1063 6.49643 23.9769 6.61403L24.6496 7.35397C24.9896 7.0449 25.1653 6.64342 25.1653 6.184H24.1653ZM23.9597 6.63045C23.8391 6.75108 23.7098 6.804 23.5452 6.804V7.804C23.978 7.804 24.3608 7.64358 24.6668 7.33755L23.9597 6.63045ZM23.0332 11.1H24.0573V10.1H23.0332V11.1ZM23.5573 10.6V25H24.5573V10.6H23.5573ZM24.0573 24.5H23.0332V25.5H24.0573V24.5ZM23.5332 25V10.6H22.5332V25H23.5332ZM29.5965 24.84L29.3877 25.2945L29.398 25.2989L29.5965 24.84ZM27.9005 23.464H27.4005V23.6055L27.4747 23.726L27.9005 23.464ZM27.9005 21.768L28.3578 21.5659L27.4005 21.768H27.9005ZM29.5645 23.816L29.296 24.2379L29.3054 24.2436L29.5645 23.816ZM34.7805 23.496L35.1341 23.8496L35.1398 23.8437L34.7805 23.496ZM35.1965 18.952L34.7943 19.2493L34.8009 19.2577L35.1965 18.952ZM33.4365 17.48L33.6954 17.0522L33.687 17.0473L33.4365 17.48ZM32.2205 16.776L31.9601 17.203L31.97 17.2087L32.2205 16.776ZM30.2365 15.528L29.9365 15.928L29.9476 15.9363L29.9592 15.944L30.2365 15.528ZM29.2125 14.472L28.7896 14.7391L28.7965 14.7493L29.2125 14.472ZM29.7245 11.016L30.0499 11.3956L29.7245 11.016ZM35.0045 11.048H35.5045V10.7824L35.2844 10.6337L35.0045 11.048ZM35.0045 12.456L34.6057 12.7576L35.5045 13.9463V12.456H35.0045ZM30.4925 11.656L30.1802 11.2656L30.4925 11.656ZM30.2365 14.216L29.828 14.5043L29.8322 14.5102L29.8365 14.516L30.2365 14.216ZM31.2925 15.176L31.0151 15.5921L31.0241 15.5978L31.2925 15.176ZM33.5965 16.52L33.8437 16.0853L33.8408 16.0837L33.5965 16.52ZM35.9965 18.44L35.6011 18.7461L35.6061 18.7523L35.9965 18.44ZM35.4525 24.168L35.792 24.535L35.7924 24.5347L35.4525 24.168ZM32.3165 24.852C31.348 24.852 30.5109 24.6907 29.795 24.3811L29.398 25.2989C30.2608 25.672 31.237 25.852 32.3165 25.852V24.852ZM29.8053 24.3857C29.0763 24.0507 28.6012 23.6486 28.3263 23.202L27.4747 23.726C27.8825 24.3887 28.538 24.9039 29.3877 25.2943L29.8053 24.3857ZM28.4005 23.464V21.768H27.4005V23.464H28.4005ZM27.4432 21.9701C27.8802 22.9592 28.4932 23.7269 29.2961 24.2378L29.8329 23.3942C29.2278 23.0091 28.7315 22.4114 28.3578 21.5659L27.4432 21.9701ZM29.3054 24.2436C30.1088 24.7305 31.1018 24.956 32.2525 24.956V23.956C31.2272 23.956 30.4282 23.7548 29.8237 23.3884L29.3054 24.2436ZM32.2525 24.956C33.4082 24.956 34.3856 24.598 35.1341 23.8496L34.4269 23.1424C33.8954 23.674 33.1875 23.956 32.2525 23.956V24.956ZM35.1398 23.8437C35.8805 23.0783 36.2405 22.1058 36.2405 20.968H35.2405C35.2405 21.8782 34.9604 22.5911 34.4212 23.1483L35.1398 23.8437ZM36.2405 20.968C36.2405 20.0331 36.0479 19.2361 35.5921 18.6463L34.8009 19.2577C35.0704 19.6066 35.2405 20.1535 35.2405 20.968H36.2405ZM35.5986 18.6548C35.1818 18.0909 34.5343 17.56 33.6954 17.0522L33.1776 17.9077C33.96 18.3813 34.4859 18.8318 34.7944 19.2492L35.5986 18.6548ZM33.687 17.0473L32.471 16.3433L31.97 17.2087L33.186 17.9127L33.687 17.0473ZM32.4808 16.3491C31.6078 15.8168 30.9533 15.4049 30.5138 15.112L29.9592 15.944C30.4157 16.2484 31.0839 16.6686 31.9602 17.2029L32.4808 16.3491ZM30.5365 15.128C30.1482 14.8368 29.8486 14.5248 29.6285 14.1946L28.7965 14.7493C29.0884 15.1872 29.4714 15.5792 29.9365 15.928L30.5365 15.128ZM29.6352 14.205C29.4353 13.8884 29.3285 13.5138 29.3285 13.064H28.3285C28.3285 13.6809 28.4777 14.245 28.7898 14.739L29.6352 14.205ZM29.3285 13.064C29.3285 12.3426 29.5736 11.8039 30.0499 11.3956L29.3991 10.6364C28.6808 11.2521 28.3285 12.0787 28.3285 13.064H29.3285ZM30.0499 11.3956C30.5378 10.9774 31.1925 10.748 32.0605 10.748V9.748C31.0085 9.748 30.1059 10.0306 29.3991 10.6364L30.0499 11.3956ZM32.0605 10.748C33.1574 10.748 34.0353 10.9966 34.7246 11.4623L35.2844 10.6337C34.395 10.0328 33.3103 9.748 32.0605 9.748V10.748ZM34.5045 11.048V12.456H35.5045V11.048H34.5045ZM35.4033 12.1544C34.6344 11.1375 33.5275 10.644 32.1565 10.644V11.644C33.2602 11.644 34.0519 12.0252 34.6057 12.7576L35.4033 12.1544ZM32.1565 10.644C31.3893 10.644 30.7157 10.8371 30.1802 11.2656L30.8048 12.0464C31.1226 11.7922 31.5584 11.644 32.1565 11.644V10.644ZM30.1802 11.2656C29.6383 11.6991 29.3525 12.2785 29.3525 12.968H30.3525C30.3525 12.5908 30.4934 12.2956 30.8048 12.0464L30.1802 11.2656ZM29.3525 12.968C29.3525 13.5343 29.509 14.0523 29.828 14.5043L30.645 13.9277C30.452 13.6543 30.3525 13.3403 30.3525 12.968H29.3525ZM29.8365 14.516C30.1341 14.9128 30.5318 15.2698 31.0152 15.592L31.5698 14.76C31.1572 14.4849 30.8509 14.2019 30.6365 13.916L29.8365 14.516ZM31.0241 15.5978C31.5061 15.9046 32.2846 16.3584 33.3522 16.9563L33.8408 16.0837C32.775 15.4869 32.0175 15.0447 31.5609 14.7542L31.0241 15.5978ZM33.3493 16.9546C34.4058 17.5554 35.1445 18.1562 35.6011 18.7461L36.3919 18.1339C35.8245 17.4011 34.9632 16.722 33.8437 16.0854L33.3493 16.9546ZM35.6061 18.7523C36.0295 19.2817 36.2645 20.0044 36.2645 20.968H37.2645C37.2645 19.8409 36.9874 18.8783 36.3869 18.1277L35.6061 18.7523ZM36.2645 20.968C36.2645 22.1683 35.8735 23.0961 35.1126 23.8013L35.7924 24.5347C36.7809 23.6186 37.2645 22.413 37.2645 20.968H36.2645ZM35.113 23.801C34.3584 24.499 33.4368 24.852 32.3165 24.852V25.852C33.6708 25.852 34.84 25.4157 35.792 24.535L35.113 23.801ZM40.7215 24.84L40.5127 25.2945L40.523 25.2989L40.7215 24.84ZM39.0255 23.464H38.5255V23.6055L38.5997 23.726L39.0255 23.464ZM39.0255 21.768L39.4828 21.5659L38.5255 21.768H39.0255ZM40.6895 23.816L40.421 24.2379L40.4304 24.2436L40.6895 23.816ZM45.9055 23.496L46.2591 23.8496L46.2648 23.8437L45.9055 23.496ZM46.3215 18.952L45.9193 19.2493L45.9259 19.2577L46.3215 18.952ZM44.5615 17.48L44.8204 17.0522L44.812 17.0473L44.5615 17.48ZM43.3455 16.776L43.0851 17.203L43.095 17.2087L43.3455 16.776ZM41.3615 15.528L41.0615 15.928L41.0726 15.9363L41.0842 15.944L41.3615 15.528ZM40.3375 14.472L39.9146 14.7391L39.9215 14.7493L40.3375 14.472ZM40.8495 11.016L41.1749 11.3956L40.8495 11.016ZM46.1295 11.048H46.6295V10.7824L46.4094 10.6337L46.1295 11.048ZM46.1295 12.456L45.7307 12.7576L46.6295 13.9463V12.456H46.1295ZM41.6175 11.656L41.3052 11.2656L41.6175 11.656ZM41.3615 14.216L40.953 14.5043L40.9572 14.5102L40.9615 14.516L41.3615 14.216ZM42.4175 15.176L42.1401 15.5921L42.1491 15.5978L42.4175 15.176ZM44.7215 16.52L44.9687 16.0853L44.9658 16.0837L44.7215 16.52ZM47.1215 18.44L46.7261 18.7461L46.7311 18.7523L47.1215 18.44ZM46.5775 24.168L46.917 24.535L46.9174 24.5347L46.5775 24.168ZM43.4415 24.852C42.473 24.852 41.6359 24.6907 40.92 24.3811L40.523 25.2989C41.3858 25.672 42.362 25.852 43.4415 25.852V24.852ZM40.9303 24.3857C40.2013 24.0507 39.7262 23.6486 39.4513 23.202L38.5997 23.726C39.0075 24.3887 39.663 24.9039 40.5127 25.2943L40.9303 24.3857ZM39.5255 23.464V21.768H38.5255V23.464H39.5255ZM38.5682 21.9701C39.0052 22.9592 39.6182 23.7269 40.4211 24.2378L40.9579 23.3942C40.3528 23.0091 39.8565 22.4114 39.4828 21.5659L38.5682 21.9701ZM40.4304 24.2436C41.2338 24.7305 42.2268 24.956 43.3775 24.956V23.956C42.3522 23.956 41.5532 23.7548 40.9487 23.3884L40.4304 24.2436ZM43.3775 24.956C44.5332 24.956 45.5106 24.598 46.2591 23.8496L45.5519 23.1424C45.0204 23.674 44.3125 23.956 43.3775 23.956V24.956ZM46.2648 23.8437C47.0055 23.0783 47.3655 22.1058 47.3655 20.968H46.3655C46.3655 21.8782 46.0854 22.5911 45.5462 23.1483L46.2648 23.8437ZM47.3655 20.968C47.3655 20.0331 47.1729 19.2361 46.7171 18.6463L45.9259 19.2577C46.1954 19.6066 46.3655 20.1535 46.3655 20.968H47.3655ZM46.7236 18.6548C46.3068 18.0909 45.6593 17.56 44.8204 17.0522L44.3026 17.9077C45.085 18.3813 45.6109 18.8318 45.9194 19.2492L46.7236 18.6548ZM44.812 17.0473L43.596 16.3433L43.095 17.2087L44.311 17.9127L44.812 17.0473ZM43.6058 16.3491C42.7328 15.8168 42.0783 15.4049 41.6388 15.112L41.0842 15.944C41.5407 16.2484 42.2089 16.6686 43.0852 17.2029L43.6058 16.3491ZM41.6615 15.128C41.2732 14.8368 40.9736 14.5248 40.7535 14.1946L39.9215 14.7493C40.2134 15.1872 40.5964 15.5792 41.0615 15.928L41.6615 15.128ZM40.7602 14.205C40.5603 13.8884 40.4535 13.5138 40.4535 13.064H39.4535C39.4535 13.6809 39.6027 14.245 39.9148 14.739L40.7602 14.205ZM40.4535 13.064C40.4535 12.3426 40.6986 11.8039 41.1749 11.3956L40.5241 10.6364C39.8058 11.2521 39.4535 12.0787 39.4535 13.064H40.4535ZM41.1749 11.3956C41.6628 10.9774 42.3175 10.748 43.1855 10.748V9.748C42.1335 9.748 41.2309 10.0306 40.5241 10.6364L41.1749 11.3956ZM43.1855 10.748C44.2824 10.748 45.1603 10.9966 45.8496 11.4623L46.4094 10.6337C45.52 10.0328 44.4353 9.748 43.1855 9.748V10.748ZM45.6295 11.048V12.456H46.6295V11.048H45.6295ZM46.5283 12.1544C45.7594 11.1375 44.6525 10.644 43.2815 10.644V11.644C44.3852 11.644 45.1769 12.0252 45.7307 12.7576L46.5283 12.1544ZM43.2815 10.644C42.5143 10.644 41.8407 10.8371 41.3052 11.2656L41.9298 12.0464C42.2476 11.7922 42.6834 11.644 43.2815 11.644V10.644ZM41.3052 11.2656C40.7633 11.6991 40.4775 12.2785 40.4775 12.968H41.4775C41.4775 12.5908 41.6184 12.2956 41.9298 12.0464L41.3052 11.2656ZM40.4775 12.968C40.4775 13.5343 40.634 14.0523 40.953 14.5043L41.77 13.9277C41.577 13.6543 41.4775 13.3403 41.4775 12.968H40.4775ZM40.9615 14.516C41.2591 14.9128 41.6568 15.2698 42.1402 15.592L42.6948 14.76C42.2822 14.4849 41.9759 14.2019 41.7615 13.916L40.9615 14.516ZM42.1491 15.5978C42.6311 15.9046 43.4096 16.3584 44.4772 16.9563L44.9658 16.0837C43.9 15.4869 43.1425 15.0447 42.6859 14.7542L42.1491 15.5978ZM44.4743 16.9546C45.5308 17.5554 46.2695 18.1562 46.7261 18.7461L47.5169 18.1339C46.9495 17.4011 46.0882 16.722 44.9687 16.0854L44.4743 16.9546ZM46.7311 18.7523C47.1545 19.2817 47.3895 20.0044 47.3895 20.968H48.3895C48.3895 19.8409 48.1124 18.8783 47.5119 18.1277L46.7311 18.7523ZM47.3895 20.968C47.3895 22.1683 46.9985 23.0961 46.2376 23.8013L46.9174 24.5347C47.9059 23.6186 48.3895 22.413 48.3895 20.968H47.3895ZM46.238 23.801C45.4834 24.499 44.5618 24.852 43.4415 24.852V25.852C44.7958 25.852 45.965 25.4157 46.917 24.535L46.238 23.801ZM56.5505 5.48V5.98H57.0505V5.48H56.5505ZM54.3105 6.088L54.5557 6.52391L54.5658 6.51793L54.3105 6.088ZM52.6785 7.72L52.2452 7.4705L52.2427 7.47487L52.6785 7.72ZM52.1025 10.6H51.6025V11.1H52.1025V10.6ZM56.5505 10.6H57.0505V10.1H56.5505V10.6ZM56.5505 11.496V11.996H57.0505V11.496H56.5505ZM52.1025 11.496V10.996H51.6025V11.496H52.1025ZM52.1025 25V25.5H52.6025V25H52.1025ZM51.0785 25H50.5785V25.5H51.0785V25ZM51.7825 7.272L51.3518 7.018L51.3498 7.02148L51.7825 7.272ZM53.7665 5.32L54.0122 5.7555L54.0157 5.75345L53.7665 5.32ZM56.5505 4.584H57.0505V4.084H56.5505V4.584ZM56.5505 4.98C55.652 4.98 54.8168 5.20587 54.0552 5.65807L54.5658 6.51793C55.1695 6.15947 55.8277 5.98 56.5505 5.98V4.98ZM54.0654 5.65221C53.3014 6.08195 52.6936 6.69166 52.2452 7.47052L53.1118 7.96948C53.474 7.34034 53.9543 6.86204 54.5556 6.52379L54.0654 5.65221ZM52.2427 7.47487C51.814 8.23705 51.6025 9.07966 51.6025 9.992H52.6025C52.6025 9.24034 52.775 8.56828 53.1143 7.96513L52.2427 7.47487ZM51.6025 9.992V10.6H52.6025V9.992H51.6025ZM52.1025 11.1H56.5505V10.1H52.1025V11.1ZM56.0505 10.6V11.496H57.0505V10.6H56.0505ZM56.5505 10.996H52.1025V11.996H56.5505V10.996ZM51.6025 11.496V25H52.6025V11.496H51.6025ZM52.1025 24.5H51.0785V25.5H52.1025V24.5ZM51.5785 25V9.992H50.5785V25H51.5785ZM51.5785 9.992C51.5785 9.07089 51.7931 8.25169 52.2152 7.52252L51.3498 7.02148C50.8333 7.91364 50.5785 8.90777 50.5785 9.992H51.5785ZM52.2132 7.52599C52.6597 6.76881 53.2576 6.18113 54.0122 5.75549L53.5208 4.88451C52.6114 5.39753 51.8866 6.11118 51.3518 7.01801L52.2132 7.52599ZM54.0157 5.75345C54.7918 5.30723 55.6336 5.084 56.5505 5.084V4.084C55.4621 4.084 54.4479 4.35144 53.5173 4.88655L54.0157 5.75345ZM56.0505 4.584V5.48H57.0505V4.584H56.0505ZM60.898 23.688L60.541 24.0381L60.5444 24.0416L60.898 23.688ZM59.266 10.6V10.1H58.766V10.6H59.266ZM60.29 10.6H60.79V10.1H60.29V10.6ZM61.666 23.048L61.3044 23.3935L61.3125 23.4016L61.666 23.048ZM68.418 23.784L68.6505 24.2268L68.659 24.2221L68.418 23.784ZM70.434 21.832L70.0033 21.578L70.434 21.832ZM71.17 10.6V10.1H70.67V10.6H71.17ZM72.194 10.6H72.694V10.1H72.194V10.6ZM72.194 25V25.5H72.694V25H72.194ZM71.17 25H70.67V25.5H71.17V25ZM71.17 22.312H71.67L70.7314 22.0718L71.17 22.312ZM68.962 24.52L69.2081 24.9553L69.2151 24.9512L68.962 24.52ZM65.602 24.852C63.6675 24.852 62.242 24.3248 61.2516 23.3344L60.5444 24.0416C61.7727 25.2698 63.4832 25.852 65.602 25.852V24.852ZM61.255 23.3379C60.284 22.3479 59.766 20.9211 59.766 18.984H58.766C58.766 21.1002 59.336 22.8094 60.541 24.0381L61.255 23.3379ZM59.766 18.984V10.6H58.766V18.984H59.766ZM59.266 11.1H60.29V10.1H59.266V11.1ZM59.79 10.6V18.984H60.79V10.6H59.79ZM59.79 18.984C59.79 20.8199 60.2729 22.3139 61.3045 23.3934L62.0275 22.7026C61.2244 21.8621 60.79 20.6467 60.79 18.984H59.79ZM61.3125 23.4016C62.3685 24.4576 63.8216 24.956 65.602 24.956V23.956C64.0117 23.956 62.8409 23.5158 62.0195 22.6944L61.3125 23.4016ZM65.602 24.956C66.7018 24.956 67.7209 24.7147 68.6504 24.2267L68.1856 23.3413C67.4084 23.7493 66.5502 23.956 65.602 23.956V24.956ZM68.659 24.2221C69.5902 23.7099 70.328 22.9959 70.8647 22.086L70.0033 21.578C69.5586 22.3321 68.9524 22.9194 68.177 23.3459L68.659 24.2221ZM70.8647 22.086C71.4054 21.1692 71.67 20.1304 71.67 18.984H70.67C70.67 19.9709 70.444 20.8308 70.0033 21.578L70.8647 22.086ZM71.67 18.984V10.6H70.67V18.984H71.67ZM71.17 11.1H72.194V10.1H71.17V11.1ZM71.694 10.6V25H72.694V10.6H71.694ZM72.194 24.5H71.17V25.5H72.194V24.5ZM71.67 25V22.312H70.67V25H71.67ZM70.7314 22.0718C70.289 22.8798 69.6214 23.5532 68.7089 24.0888L69.2151 24.9512C70.2653 24.3348 71.0697 23.5362 71.6086 22.5522L70.7314 22.0718ZM68.716 24.0847C67.8181 24.5922 66.7847 24.852 65.602 24.852V25.852C66.9366 25.852 68.1432 25.5572 69.208 24.9553L68.716 24.0847ZM81.7068 25.288V25.788H82.2068V25.288H81.7068ZM78.9547 24.616L78.709 25.0516L78.7177 25.0562L78.9547 24.616ZM76.9707 22.664L77.4014 22.41L76.9707 22.664ZM76.2348 0.999998V0.499998H75.7348V0.999998H76.2348ZM77.2587 0.999998H77.7587V0.499998H77.2587V0.999998ZM77.8347 22.184L77.3988 22.4292L77.4048 22.4393L77.8347 22.184ZM79.4668 23.816L79.2114 24.246L79.2216 24.2518L79.4668 23.816ZM81.7068 24.392H82.2068V23.892H81.7068V24.392ZM81.7068 24.788C80.7816 24.788 79.9465 24.5821 79.1918 24.1758L78.7177 25.0562C79.627 25.5459 80.6266 25.788 81.7068 25.788V24.788ZM79.2004 24.1805C78.4459 23.7549 77.848 23.1672 77.4014 22.41L76.5401 22.918C77.0749 23.8248 77.7996 24.5385 78.7091 25.0515L79.2004 24.1805ZM77.4014 22.41C76.9589 21.6596 76.7348 20.8202 76.7348 19.88H75.7348C75.7348 20.9878 76.0013 22.0044 76.5401 22.918L77.4014 22.41ZM76.7348 19.88V0.999998H75.7348V19.88H76.7348ZM76.2348 1.5H77.2587V0.499998H76.2348V1.5ZM76.7587 0.999998V19.88H77.7587V0.999998H76.7587ZM76.7587 19.88C76.7587 20.8113 76.9692 21.665 77.399 22.4291L78.2705 21.9389C77.9323 21.3376 77.7587 20.6554 77.7587 19.88H76.7587ZM77.4048 22.4393C77.8529 23.1938 78.4569 23.7979 79.2115 24.2459L79.722 23.3861C79.1113 23.0234 78.6273 22.5395 78.2647 21.9287L77.4048 22.4393ZM79.2216 24.2518C79.9818 24.6794 80.8133 24.892 81.7068 24.892V23.892C80.9788 23.892 80.317 23.7206 79.7119 23.3802L79.2216 24.2518ZM81.2068 24.392V25.288H82.2068V24.392H81.2068ZM92.5592 0.999998V0.499998H92.0592V0.999998H92.5592ZM97.2953 2.184L96.9417 2.53758L96.9466 2.54236L97.2953 2.184ZM97.7112 8.136L98.1308 8.40812L98.134 8.403L97.7112 8.136ZM95.8553 9.736L95.6767 9.26897L93.944 9.93145L95.7749 10.2295L95.8553 9.736ZM100.111 12.04L100.5 11.7252V11.7252L100.111 12.04ZM100.559 21.16L100.992 21.4105L100.994 21.4073L100.559 21.16ZM97.6472 24.008L97.8861 24.4473L97.8888 24.4458L97.6472 24.008ZM92.5592 25H92.0592V25.5H92.5592V25ZM96.4312 8.328L96.795 8.67101L96.4312 8.328ZM96.5912 2.824L96.2253 3.16476L96.2316 3.1713L96.5912 2.824ZM93.5833 1.896V1.396H93.0833V1.896H93.5833ZM93.5833 9.448H93.0833V9.948H93.5833V9.448ZM97.2632 23.208L97.5152 23.6399L97.5218 23.636L97.2632 23.208ZM99.6953 20.648L99.257 20.4074L99.6953 20.648ZM98.8313 12.008L98.481 12.3649L98.4877 12.3713L98.8313 12.008ZM93.5833 10.312V9.812H93.0833V10.312H93.5833ZM93.5833 24.104H93.0833V24.604H93.5833V24.104ZM92.5592 1.5H93.5833V0.499998H92.5592V1.5ZM93.5833 1.5C95.2026 1.5 96.2846 1.88043 96.9417 2.53755L97.6488 1.83044C96.7273 0.908903 95.3346 0.499998 93.5833 0.499998V1.5ZM96.9466 2.54236C97.6074 3.18528 97.9792 4.17633 97.9792 5.608H98.9792C98.9792 4.01033 98.5618 2.71871 97.6439 1.82564L96.9466 2.54236ZM97.9792 5.608C97.9792 6.37915 97.7551 7.13027 97.2885 7.869L98.134 8.403C98.6914 7.52039 98.9792 6.58618 98.9792 5.608H97.9792ZM97.2918 7.8639C96.8249 8.5836 96.2837 9.03689 95.6767 9.26897L96.0338 10.203C96.8775 9.88044 97.5736 9.26707 98.1307 8.4081L97.2918 7.8639ZM95.7749 10.2295C97.5099 10.5119 98.8101 11.2285 99.7228 12.3548L100.5 11.7252C99.4071 10.3768 97.8699 9.55739 95.9356 9.2425L95.7749 10.2295ZM99.7228 12.3548C100.636 13.482 101.115 14.9829 101.115 16.904H102.115C102.115 14.8144 101.592 13.0726 100.5 11.7252L99.7228 12.3548ZM101.115 16.904C101.115 18.4283 100.781 19.7597 100.125 20.9127L100.994 21.4073C101.746 20.0856 102.115 18.5797 102.115 16.904H101.115ZM100.127 20.9095C99.4683 22.0464 98.564 22.9312 97.4057 23.5702L97.8888 24.4458C99.2052 23.7195 100.242 22.7056 100.992 21.4105L100.127 20.9095ZM97.4084 23.5688C96.2714 24.1871 94.9999 24.5 93.5833 24.5V25.5C95.1533 25.5 96.5911 25.1516 97.8861 24.4472L97.4084 23.5688ZM93.5833 24.5H92.5592V25.5H93.5833V24.5ZM93.0592 25V0.999998H92.0592V25H93.0592ZM93.8392 9.948C95.0013 9.948 95.9968 9.51762 96.795 8.67101L96.0675 7.98499C95.4577 8.63171 94.7252 8.948 93.8392 8.948V9.948ZM96.795 8.67101C97.5921 7.82559 97.9872 6.78308 97.9872 5.576H96.9872C96.9872 6.54492 96.6783 7.33708 96.0675 7.98499L96.795 8.67101ZM97.9872 5.576C97.9872 4.28438 97.6698 3.22127 96.951 2.4767L96.2316 3.1713C96.7073 3.66406 96.9872 4.43562 96.9872 5.576H97.9872ZM96.9572 2.48329C96.2485 1.72213 95.1687 1.396 93.8392 1.396V2.396C95.0271 2.396 95.782 2.68853 96.2253 3.16471L96.9572 2.48329ZM93.8392 1.396H93.5833V2.396H93.8392V1.396ZM93.0833 1.896V9.448H94.0833V1.896H93.0833ZM93.5833 9.948H93.8392V8.948H93.5833V9.948ZM93.8392 24.604C95.1808 24.604 96.41 24.2846 97.5152 23.6399L97.0113 22.7761C96.0685 23.3261 95.0151 23.604 93.8392 23.604V24.604ZM97.5218 23.636C98.6241 22.97 99.4955 22.0508 100.134 20.8886L99.257 20.4074C98.7003 21.4212 97.9504 22.2087 97.0047 22.78L97.5218 23.636ZM100.134 20.8886C100.775 19.7197 101.091 18.4089 101.091 16.968H100.091C100.091 18.2578 99.8099 19.4003 99.257 20.4074L100.134 20.8886ZM101.091 16.968C101.091 14.6845 100.48 12.8787 99.1748 11.6447L98.4877 12.3713C99.5292 13.356 100.091 14.8568 100.091 16.968H101.091ZM99.1815 11.6512C97.9072 10.4005 96.0995 9.812 93.8392 9.812V10.812C95.931 10.812 97.4513 11.3542 98.481 12.3648L99.1815 11.6512ZM93.8392 9.812H93.5833V10.812H93.8392V9.812ZM93.0833 10.312V24.104H94.0833V10.312H93.0833ZM93.5833 24.604H93.8392V23.604H93.5833V24.604ZM105.402 6.984L105.048 7.33755L105.056 7.34597L105.065 7.35397L105.402 6.984ZM105.402 5.416L105.065 5.04603L105.056 5.05403L105.048 5.06244L105.402 5.416ZM106.969 5.416L106.616 5.76955L106.624 5.77797L106.633 5.78597L106.969 5.416ZM106.969 6.984L106.633 6.61403L106.624 6.62203L106.616 6.63045L106.969 6.984ZM105.689 10.6V10.1H105.189V10.6H105.689ZM106.714 10.6H107.214V10.1H106.714V10.6ZM106.714 25V25.5H107.214V25H106.714ZM105.689 25H105.189V25.5H105.689V25ZM106.202 6.804C106.035 6.804 105.887 6.74935 105.738 6.61403L105.065 7.35397C105.386 7.64531 105.77 7.804 106.202 7.804V6.804ZM105.755 6.63045C105.642 6.51701 105.581 6.38032 105.581 6.184H104.581C104.581 6.62768 104.735 7.02432 105.048 7.33755L105.755 6.63045ZM105.581 6.184C105.581 6.01945 105.634 5.89019 105.755 5.76955L105.048 5.06244C104.742 5.36848 104.581 5.75122 104.581 6.184H105.581ZM105.738 5.78597C105.887 5.65064 106.035 5.596 106.202 5.596V4.596C105.77 4.596 105.386 4.75469 105.065 5.04603L105.738 5.78597ZM106.202 5.596C106.366 5.596 106.495 5.64892 106.616 5.76955L107.323 5.06244C107.017 4.75641 106.634 4.596 106.202 4.596V5.596ZM106.633 5.78597C106.771 5.91115 106.822 6.03573 106.822 6.184H107.822C107.822 5.73493 107.637 5.34752 107.306 5.04603L106.633 5.78597ZM106.822 6.184C106.822 6.36458 106.763 6.49643 106.633 6.61403L107.306 7.35397C107.646 7.0449 107.822 6.64342 107.822 6.184H106.822ZM106.616 6.63045C106.495 6.75108 106.366 6.804 106.202 6.804V7.804C106.634 7.804 107.017 7.64358 107.323 7.33755L106.616 6.63045ZM105.689 11.1H106.714V10.1H105.689V11.1ZM106.214 10.6V25H107.214V10.6H106.214ZM106.714 24.5H105.689V25.5H106.714V24.5ZM106.189 25V10.6H105.189V25H106.189ZM116.637 25.192V25.692H117.137V25.192H116.637ZM112.701 23.752L112.359 24.1168L112.363 24.1203L112.701 23.752ZM111.165 4.808V4.308H110.665V4.808H111.165ZM112.189 4.808H112.689V4.308H112.189V4.808ZM112.189 10.6H111.689V11.1H112.189V10.6ZM116.605 10.6H117.105V10.1H116.605V10.6ZM116.605 11.496V11.996H117.105V11.496H116.605ZM112.189 11.496V10.996H111.689V11.496H112.189ZM113.437 23.112L113.088 23.4702L113.097 23.479L113.437 23.112ZM116.637 24.296H117.137V23.796H116.637V24.296ZM116.637 24.692C115.168 24.692 113.981 24.2493 113.039 23.3837L112.363 24.1203C113.511 25.1747 114.948 25.692 116.637 25.692V24.692ZM113.043 23.3872C112.14 22.5405 111.665 21.3611 111.665 19.784H110.665C110.665 21.5775 111.214 23.0435 112.359 24.1168L113.043 23.3872ZM111.665 19.784V4.808H110.665V19.784H111.665ZM111.165 5.308H112.189V4.308H111.165V5.308ZM111.689 4.808V10.6H112.689V4.808H111.689ZM112.189 11.1H116.605V10.1H112.189V11.1ZM116.105 10.6V11.496H117.105V10.6H116.105ZM116.605 10.996H112.189V11.996H116.605V10.996ZM111.689 11.496V19.784H112.689V11.496H111.689ZM111.689 19.784C111.689 21.2962 112.139 22.5459 113.088 23.4701L113.786 22.7539C113.07 22.0568 112.689 21.0878 112.689 19.784H111.689ZM113.097 23.479C114.053 24.3628 115.245 24.796 116.637 24.796V23.796C115.469 23.796 114.528 23.4399 113.776 22.7449L113.097 23.479ZM116.137 24.296V25.192H117.137V24.296H116.137ZM129.505 23.624L129.255 23.1904L129.505 23.624ZM132.001 21.256H132.501V19.5898L131.583 20.9807L132.001 21.256ZM132.001 22.888L132.372 23.223L132.501 23.0803V22.888H132.001ZM129.409 24.808L129.598 25.2709L129.607 25.267L129.409 24.808ZM122.465 24.328L122.204 24.7547L122.207 24.7567L122.465 24.328ZM119.68 21.512L119.248 21.7635L119.252 21.7692L119.68 21.512ZM119.68 13.928L120.109 14.1864L120.111 14.1829L119.68 13.928ZM122.465 11.24L122.228 10.7992L122.225 10.8011L122.465 11.24ZM132.096 12.904L132.448 13.2598L132.786 12.9262L132.47 12.5715L132.096 12.904ZM122.048 22.824L121.697 22.4682L121.302 22.8589L121.732 23.211L122.048 22.824ZM124.096 24.104L123.903 24.5653L123.916 24.5703L124.096 24.104ZM121.441 22.216L121.075 22.5569L121.427 22.9344L121.793 22.5708L121.441 22.216ZM130.816 12.904L131.169 13.2588L131.549 12.8817L131.147 12.5284L130.816 12.904ZM128.768 11.592L128.575 12.0533L128.588 12.0583L128.768 11.592ZM122.913 12.04L123.155 12.4775L123.158 12.4758L122.913 12.04ZM126.337 24.988C127.537 24.988 128.678 24.6752 129.754 24.0576L129.255 23.1904C128.325 23.7248 127.355 23.988 126.337 23.988V24.988ZM129.754 24.0576C130.827 23.4411 131.715 22.5965 132.418 21.5313L131.583 20.9807C130.963 21.9208 130.188 22.6549 129.255 23.1904L129.754 24.0576ZM131.501 21.256V22.888H132.501V21.256H131.501ZM131.629 22.553C130.881 23.3825 130.074 23.9761 129.21 24.349L129.607 25.267C130.621 24.8292 131.542 24.1429 132.372 23.223L131.629 22.553ZM129.219 24.3452C128.35 24.7007 127.35 24.884 126.208 24.884V25.884C127.457 25.884 128.589 25.6833 129.598 25.2708L129.219 24.3452ZM126.208 24.884C124.98 24.884 123.82 24.5583 122.722 23.8993L122.207 24.7567C123.455 25.5057 124.792 25.884 126.208 25.884V24.884ZM122.725 23.9014C121.643 23.24 120.772 22.3599 120.109 21.2548L119.252 21.7692C119.997 23.0108 120.982 24.008 122.204 24.7546L122.725 23.9014ZM120.113 21.2606C119.473 20.1615 119.156 18.9999 119.156 17.768H118.156C118.156 19.1814 118.522 20.5159 119.248 21.7634L120.113 21.2606ZM119.156 17.768C119.156 16.422 119.477 15.2327 120.109 14.1864L119.252 13.6696C118.519 14.8846 118.156 16.2553 118.156 17.768H119.156ZM120.111 14.1829C120.748 13.1081 121.61 12.2758 122.704 11.6789L122.225 10.8011C120.973 11.4842 119.979 12.4439 119.25 13.6731L120.111 14.1829ZM122.701 11.6807C123.818 11.0824 125.058 10.78 126.432 10.78V9.78C124.905 9.78 123.501 10.1176 122.228 10.7993L122.701 11.6807ZM126.432 10.78C128.5 10.78 130.255 11.587 131.723 13.2365L132.47 12.5715C130.824 10.7223 128.803 9.78 126.432 9.78V10.78ZM131.745 12.5482L121.697 22.4682L122.4 23.1798L132.448 13.2598L131.745 12.5482ZM121.732 23.211C122.464 23.8097 123.187 24.2649 123.903 24.5651L124.29 23.6429C123.683 23.3884 123.041 22.9903 122.365 22.437L121.732 23.211ZM123.916 24.5703C124.644 24.8521 125.453 24.988 126.337 24.988V23.988C125.556 23.988 124.872 23.8679 124.277 23.6377L123.916 24.5703ZM119.18 17.672C119.18 19.5651 119.812 21.2028 121.075 22.5569L121.806 21.8751C120.722 20.7119 120.18 19.3202 120.18 17.672H119.18ZM121.793 22.5708L131.169 13.2588L130.464 12.5492L121.088 21.8612L121.793 22.5708ZM131.147 12.5284C130.412 11.8827 129.68 11.4085 128.949 11.1257L128.588 12.0583C129.18 12.2875 129.813 12.6879 130.486 13.2796L131.147 12.5284ZM128.962 11.1309C128.225 10.8218 127.366 10.676 126.4 10.676V11.676C127.269 11.676 127.99 11.8075 128.575 12.0531L128.962 11.1309ZM126.4 10.676C125.023 10.676 123.774 10.9817 122.667 11.6042L123.158 12.4758C124.099 11.9463 125.176 11.676 126.4 11.676V10.676ZM122.67 11.6025C121.59 12.2002 120.735 13.0317 120.113 14.0909L120.976 14.5971C121.506 13.6937 122.23 12.9891 123.155 12.4775L122.67 11.6025ZM120.113 14.0909C119.488 15.1556 119.18 16.3537 119.18 17.672H120.18C120.18 16.5156 120.449 15.4951 120.976 14.5971L120.113 14.0909ZM136.065 24.84L135.856 25.2945L135.867 25.2989L136.065 24.84ZM134.369 23.464H133.869V23.6055L133.943 23.726L134.369 23.464ZM134.369 21.768L134.827 21.5659L133.869 21.768H134.369ZM136.033 23.816L135.765 24.2379L135.774 24.2436L136.033 23.816ZM141.249 23.496L141.603 23.8496L141.609 23.8437L141.249 23.496ZM141.665 18.952L141.263 19.2493L141.27 19.2577L141.665 18.952ZM139.905 17.48L140.164 17.0522L140.156 17.0473L139.905 17.48ZM138.689 16.776L138.429 17.203L138.439 17.2087L138.689 16.776ZM136.705 15.528L136.405 15.928L136.416 15.9363L136.428 15.944L136.705 15.528ZM135.681 14.472L135.258 14.7391L135.265 14.7493L135.681 14.472ZM136.193 11.016L136.519 11.3956L136.193 11.016ZM141.473 11.048H141.973V10.7824L141.753 10.6337L141.473 11.048ZM141.473 12.456L141.074 12.7576L141.973 13.9463V12.456H141.473ZM136.961 11.656L136.649 11.2656L136.961 11.656ZM136.705 14.216L136.297 14.5043L136.301 14.5102L136.305 14.516L136.705 14.216ZM137.761 15.176L137.484 15.5921L137.493 15.5978L137.761 15.176ZM140.065 16.52L140.312 16.0853L140.31 16.0837L140.065 16.52ZM142.465 18.44L142.07 18.7461L142.075 18.7523L142.465 18.44ZM141.921 24.168L142.261 24.535L142.261 24.5347L141.921 24.168ZM138.785 24.852C137.817 24.852 136.98 24.6907 136.264 24.3811L135.867 25.2989C136.73 25.672 137.706 25.852 138.785 25.852V24.852ZM136.274 24.3857C135.545 24.0507 135.07 23.6486 134.795 23.202L133.943 23.726C134.351 24.3887 135.007 24.9039 135.857 25.2943L136.274 24.3857ZM134.869 23.464V21.768H133.869V23.464H134.869ZM133.912 21.9701C134.349 22.9592 134.962 23.7269 135.765 24.2378L136.302 23.3942C135.697 23.0091 135.2 22.4114 134.827 21.5659L133.912 21.9701ZM135.774 24.2436C136.578 24.7305 137.57 24.956 138.721 24.956V23.956C137.696 23.956 136.897 23.7548 136.292 23.3884L135.774 24.2436ZM138.721 24.956C139.877 24.956 140.854 24.598 141.603 23.8496L140.896 23.1424C140.364 23.674 139.656 23.956 138.721 23.956V24.956ZM141.609 23.8437C142.349 23.0783 142.709 22.1058 142.709 20.968H141.709C141.709 21.8782 141.429 22.5911 140.89 23.1483L141.609 23.8437ZM142.709 20.968C142.709 20.0331 142.517 19.2361 142.061 18.6463L141.27 19.2577C141.539 19.6066 141.709 20.1535 141.709 20.968H142.709ZM142.067 18.6548C141.651 18.0909 141.003 17.56 140.164 17.0522L139.646 17.9077C140.429 18.3813 140.955 18.8318 141.263 19.2492L142.067 18.6548ZM140.156 17.0473L138.94 16.3433L138.439 17.2087L139.655 17.9127L140.156 17.0473ZM138.95 16.3491C138.077 15.8168 137.422 15.4049 136.983 15.112L136.428 15.944C136.884 16.2484 137.553 16.6686 138.429 17.2029L138.95 16.3491ZM137.005 15.128C136.617 14.8368 136.317 14.5248 136.097 14.1946L135.265 14.7493C135.557 15.1872 135.94 15.5792 136.405 15.928L137.005 15.128ZM136.104 14.205C135.904 13.8884 135.797 13.5138 135.797 13.064H134.797C134.797 13.6809 134.946 14.245 135.258 14.739L136.104 14.205ZM135.797 13.064C135.797 12.3426 136.042 11.8039 136.519 11.3956L135.868 10.6364C135.15 11.2521 134.797 12.0787 134.797 13.064H135.797ZM136.519 11.3956C137.007 10.9774 137.661 10.748 138.529 10.748V9.748C137.477 9.748 136.575 10.0306 135.868 10.6364L136.519 11.3956ZM138.529 10.748C139.626 10.748 140.504 10.9966 141.193 11.4623L141.753 10.6337C140.864 10.0328 139.779 9.748 138.529 9.748V10.748ZM140.973 11.048V12.456H141.973V11.048H140.973ZM141.872 12.1544C141.103 11.1375 139.996 10.644 138.625 10.644V11.644C139.729 11.644 140.521 12.0252 141.074 12.7576L141.872 12.1544ZM138.625 10.644C137.858 10.644 137.184 10.8371 136.649 11.2656L137.274 12.0464C137.591 11.7922 138.027 11.644 138.625 11.644V10.644ZM136.649 11.2656C136.107 11.6991 135.821 12.2785 135.821 12.968H136.821C136.821 12.5908 136.962 12.2956 137.274 12.0464L136.649 11.2656ZM135.821 12.968C135.821 13.5343 135.978 14.0523 136.297 14.5043L137.114 13.9277C136.921 13.6543 136.821 13.3403 136.821 12.968H135.821ZM136.305 14.516C136.603 14.9128 137.001 15.2698 137.484 15.592L138.039 14.76C137.626 14.4849 137.32 14.2019 137.105 13.916L136.305 14.516ZM137.493 15.5978C137.975 15.9046 138.753 16.3584 139.821 16.9563L140.31 16.0837C139.244 15.4869 138.486 15.0447 138.03 14.7542L137.493 15.5978ZM139.818 16.9546C140.875 17.5554 141.613 18.1562 142.07 18.7461L142.861 18.1339C142.293 17.4011 141.432 16.722 140.312 16.0854L139.818 16.9546ZM142.075 18.7523C142.498 19.2817 142.733 20.0044 142.733 20.968H143.733C143.733 19.8409 143.456 18.8783 142.856 18.1277L142.075 18.7523ZM142.733 20.968C142.733 22.1683 142.342 23.0961 141.581 23.8013L142.261 24.5347C143.25 23.6186 143.733 22.413 143.733 20.968H142.733ZM141.582 23.801C140.827 24.499 139.906 24.852 138.785 24.852V25.852C140.14 25.852 141.309 25.4157 142.261 24.535L141.582 23.801Z" fill="#D1AA70" mask="url(#path-1-outside-1_131_340)"/>
</svg>
