<svg width="77" height="77" viewBox="0 0 77 77" fill="none" xmlns="http://www.w3.org/2000/svg">
<path d="M38.5 67.375C30.4792 67.375 23.6615 64.5677 18.0469 58.9531C12.4323 53.3385 9.625 46.5208 9.625 38.5C9.625 30.4792 12.4323 23.6615 18.0469 18.0469C23.6615 12.4323 30.4792 9.625 38.5 9.625C39.2486 9.625 39.9839 9.65174 40.7057 9.70521C41.4276 9.75868 42.1361 9.83889 42.8313 9.94583C40.6389 11.4965 38.8877 13.5151 37.5776 16.0016C36.2675 18.488 35.6125 21.175 35.6125 24.0625C35.6125 28.875 37.2969 32.9656 40.6656 36.3344C44.0344 39.7031 48.125 41.3875 52.9375 41.3875C55.8785 41.3875 58.5788 40.7325 61.0385 39.4224C63.4983 38.1123 65.5035 36.3611 67.0542 34.1687C67.1611 34.8639 67.2413 35.5724 67.2948 36.2943C67.3483 37.0161 67.375 37.7514 67.375 38.5C67.375 46.5208 64.5677 53.3385 58.9531 58.9531C53.3385 64.5677 46.5208 67.375 38.5 67.375ZM38.5 60.9583C43.2056 60.9583 47.4299 59.6616 51.1729 57.0682C54.916 54.4748 57.6431 51.0927 59.3542 46.9219C58.2847 47.1892 57.2153 47.4031 56.1458 47.5635C55.0764 47.724 54.0069 47.8042 52.9375 47.8042C46.3604 47.8042 40.7592 45.4915 36.1339 40.8661C31.5085 36.2408 29.1958 30.6396 29.1958 24.0625C29.1958 22.9931 29.276 21.9236 29.4365 20.8542C29.5969 19.7847 29.8108 18.7153 30.0781 17.6458C25.9073 19.3569 22.5252 22.084 19.9318 25.8271C17.3384 29.5701 16.0417 33.7944 16.0417 38.5C16.0417 44.7028 18.234 49.9965 22.6188 54.3812C27.0035 58.766 32.2972 60.9583 38.5 60.9583Z" fill="#7D6E5B"/>
</svg>
