<svg width="78" height="80" viewBox="0 0 78 80" fill="none" xmlns="http://www.w3.org/2000/svg">
<g clip-path="url(#clip0_292_272)">
<path d="M77.3333 40C77.3333 17.9088 60.0215 0 38.6667 0C17.3118 0 0 17.9088 0 40C0 58.7584 12.4847 74.4992 29.3263 78.8224V52.224H21.3533V40H29.3263V34.7328C29.3263 21.1184 35.2826 14.808 48.2034 14.808C50.6533 14.808 54.8804 15.3056 56.6096 15.8016V26.8816C55.697 26.7824 54.1117 26.7328 52.1428 26.7328C45.803 26.7328 43.3531 29.2176 43.3531 35.6768V40H55.9831L53.8132 52.224H43.3531V79.7072C62.4993 77.3152 77.3349 60.4512 77.3349 40H77.3333Z" fill="#D0BFAA"/>
</g>
<defs>
<clipPath id="clip0_292_272">
<rect width="77.3333" height="80" fill="white"/>
</clipPath>
</defs>
</svg>
