<svg width="80" height="80" viewBox="0 0 80 80" fill="none" xmlns="http://www.w3.org/2000/svg">
<path d="M39.9999 50C42.7777 50 45.1388 49.0278 47.0832 47.0834C49.0277 45.1389 49.9999 42.7778 49.9999 40C49.9999 37.2223 49.0277 34.8611 47.0832 32.9167C45.1388 30.9723 42.7777 30 39.9999 30C37.2221 30 34.861 30.9723 32.9166 32.9167C30.9721 34.8611 29.9999 37.2223 29.9999 40C29.9999 42.7778 30.9721 45.1389 32.9166 47.0834C34.861 49.0278 37.2221 50 39.9999 50ZM39.9999 56.6667C35.3888 56.6667 31.4582 55.0417 28.2082 51.7917C24.9583 48.5417 23.3333 44.6111 23.3333 40C23.3333 35.3889 24.9583 31.4584 28.2082 28.2084C31.4582 24.9584 35.3888 23.3334 39.9999 23.3334C44.611 23.3334 48.5416 24.9584 51.7916 28.2084C55.0416 31.4584 56.6666 35.3889 56.6666 40C56.6666 44.6111 55.0416 48.5417 51.7916 51.7917C48.5416 55.0417 44.611 56.6667 39.9999 56.6667ZM16.6666 43.3334H3.33325V36.6667H16.6666V43.3334ZM76.6666 43.3334H63.3332V36.6667H76.6666V43.3334ZM36.6666 16.6667V3.33337H43.3332V16.6667H36.6666ZM36.6666 76.6667V63.3334H43.3332V76.6667H36.6666ZM21.3333 25.8334L12.9166 17.75L17.6666 12.8334L25.6666 21.1667L21.3333 25.8334ZM62.3332 67.1667L54.2499 58.75L58.6666 54.1667L67.0832 62.25L62.3332 67.1667ZM54.1666 21.3334L62.2499 12.9167L67.1666 17.6667L58.8332 25.6667L54.1666 21.3334ZM12.8333 62.3334L21.2499 54.25L25.8332 58.6667L17.7499 67.0834L12.8333 62.3334Z" fill="#7D6E5B"/>
</svg>
